<svg xmlns="http://www.w3.org/2000/svg" xmlns:xlink="http://www.w3.org/1999/xlink" width="500" zoomAndPan="magnify" viewBox="0 0 375 374.999991" height="500" preserveAspectRatio="xMidYMid meet" version="1.0"><defs><g/><clipPath id="73604a035a"><path d="M 101.265625 72.289062 L 186 72.289062 L 186 154 L 101.265625 154 Z M 101.265625 72.289062 " clip-rule="nonzero"/></clipPath><clipPath id="957df28a0c"><path d="M 111.65625 99.34375 L 273.730469 99.34375 L 273.730469 223.789062 L 111.65625 223.789062 Z M 111.65625 99.34375 " clip-rule="nonzero"/></clipPath></defs><g clip-path="url(#73604a035a)"><path fill="#f97316" d="M 129.527344 136.953125 L 145.226562 152.652344 C 146.082031 153.503906 147.210938 153.957031 148.371094 153.957031 C 148.945312 153.957031 149.523438 153.84375 150.078125 153.617188 C 151.746094 152.921875 152.828125 151.308594 152.828125 149.503906 L 152.828125 136.953125 L 167.21875 136.953125 C 168.941406 136.953125 170.335938 135.558594 170.335938 133.835938 C 170.335938 132.117188 168.941406 130.71875 167.21875 130.71875 L 151.046875 130.71875 C 148.589844 130.71875 146.59375 132.714844 146.59375 135.175781 L 146.59375 145.203125 L 133.414062 132.023438 C 132.574219 131.183594 131.457031 130.71875 130.265625 130.71875 L 115.363281 130.71875 C 111.027344 130.71875 107.5 127.191406 107.5 122.855469 L 107.5 86.425781 C 107.5 82.089844 111.027344 78.5625 115.363281 78.5625 L 171.890625 78.5625 C 176.222656 78.5625 179.75 82.089844 179.75 86.425781 L 179.75 91.40625 C 179.75 93.125 181.148438 94.519531 182.867188 94.519531 C 184.589844 94.519531 185.984375 93.125 185.984375 91.40625 L 185.984375 86.425781 C 185.984375 78.652344 179.660156 72.328125 171.890625 72.328125 L 115.363281 72.328125 C 107.589844 72.328125 101.265625 78.652344 101.265625 86.425781 L 101.265625 122.855469 C 101.265625 130.628906 107.589844 136.953125 115.363281 136.953125 L 129.527344 136.953125 " fill-opacity="1" fill-rule="nonzero"/></g><path fill="#f97316" d="M 201.222656 104.960938 C 202.167969 102.617188 204.414062 101.101562 206.945312 101.101562 L 210.402344 101.101562 C 210.785156 102.382812 211.976562 103.316406 213.386719 103.316406 C 215.105469 103.316406 216.503906 101.921875 216.503906 100.199219 L 216.503906 96.527344 C 216.503906 91.890625 220.277344 88.117188 224.914062 88.117188 C 229.550781 88.117188 233.324219 91.890625 233.324219 96.527344 L 233.324219 100.199219 C 233.324219 101.921875 234.71875 103.316406 236.441406 103.316406 C 237.847656 103.316406 239.039062 102.382812 239.425781 101.101562 L 242.882812 101.101562 C 245.414062 101.101562 247.660156 102.617188 248.605469 104.960938 L 249.367188 106.855469 L 200.457031 106.855469 Z M 199.804688 113.089844 L 250.023438 113.089844 C 251.953125 113.089844 253.746094 112.136719 254.824219 110.539062 C 255.902344 108.941406 256.113281 106.921875 255.394531 105.132812 L 254.386719 102.632812 C 252.484375 97.914062 247.96875 94.867188 242.882812 94.867188 L 239.460938 94.867188 C 238.632812 87.570312 232.425781 81.882812 224.914062 81.882812 C 217.398438 81.882812 211.191406 87.570312 210.363281 94.867188 L 206.945312 94.867188 C 201.855469 94.867188 197.339844 97.914062 195.4375 102.632812 L 194.433594 105.132812 C 193.710938 106.921875 193.925781 108.941406 195.003906 110.539062 C 196.078125 112.136719 197.875 113.089844 199.804688 113.089844 " fill-opacity="1" fill-rule="nonzero"/><path fill="#1e3796" d="M 224.914062 92.394531 C 223.191406 92.394531 221.796875 93.789062 221.796875 95.507812 L 221.796875 95.628906 C 221.796875 97.351562 223.191406 98.746094 224.914062 98.746094 C 226.636719 98.746094 228.027344 97.351562 228.027344 95.628906 L 228.027344 95.507812 C 228.027344 93.789062 226.636719 92.394531 224.914062 92.394531 " fill-opacity="1" fill-rule="nonzero"/><path fill="#1e3796" d="M 224.464844 133.585938 C 222.742188 133.585938 221.347656 134.980469 221.347656 136.703125 C 221.347656 138.421875 222.742188 139.820312 224.464844 139.820312 L 254.320312 139.820312 C 256.042969 139.820312 257.4375 138.421875 257.4375 136.703125 C 257.4375 134.980469 256.042969 133.585938 254.320312 133.585938 L 224.464844 133.585938 " fill-opacity="1" fill-rule="nonzero"/><path fill="#1e3796" d="M 195.503906 139.820312 L 212.535156 139.820312 C 214.257812 139.820312 215.652344 138.421875 215.652344 136.703125 C 215.652344 134.980469 214.257812 133.585938 212.535156 133.585938 L 195.503906 133.585938 C 193.785156 133.585938 192.386719 134.980469 192.386719 136.703125 C 192.386719 138.421875 193.785156 139.820312 195.503906 139.820312 " fill-opacity="1" fill-rule="nonzero"/><path fill="#1e3796" d="M 176.097656 109.054688 L 176.097656 168.976562 C 176.097656 170.699219 177.488281 172.09375 179.214844 172.09375 C 180.933594 172.09375 182.328125 170.699219 182.328125 168.976562 L 182.328125 109.054688 C 182.328125 107.371094 183.699219 106.003906 185.382812 106.003906 L 187.578125 106.003906 C 189.300781 106.003906 190.695312 104.605469 190.695312 102.886719 C 190.695312 101.164062 189.300781 99.769531 187.578125 99.769531 L 185.382812 99.769531 C 180.261719 99.769531 176.097656 103.933594 176.097656 109.054688 " fill-opacity="1" fill-rule="nonzero"/><g clip-path="url(#957df28a0c)"><path fill="#1e3796" d="M 126.570312 193.339844 L 135.027344 193.339844 L 135.027344 201.238281 C 135.027344 203.65625 136.992188 205.621094 139.40625 205.621094 L 145.652344 205.621094 C 148.066406 205.621094 150.03125 203.65625 150.03125 201.238281 L 150.03125 193.339844 L 158.488281 193.339844 L 158.488281 217.800781 L 126.570312 217.800781 Z M 141.261719 193.339844 L 143.796875 193.339844 L 143.796875 199.386719 L 141.261719 199.386719 Z M 135.648438 175.855469 L 158.488281 175.855469 L 158.488281 187.105469 L 135.648438 187.105469 Z M 158.488281 165.953125 L 158.488281 169.625 L 135.648438 169.625 L 135.648438 165.953125 Z M 184.082031 183.578125 L 189.410156 183.578125 L 189.410156 193.527344 L 184.082031 193.527344 Z M 208.769531 198.132812 L 208.769531 208.550781 L 201.992188 208.550781 C 200.269531 208.550781 198.875 209.945312 198.875 211.667969 C 198.875 213.386719 200.269531 214.78125 201.992188 214.78125 L 208.769531 214.78125 L 208.769531 217.800781 L 164.71875 217.800781 L 164.71875 214.78125 L 191.238281 214.78125 C 192.960938 214.78125 194.355469 213.386719 194.355469 211.667969 C 194.355469 209.945312 192.960938 208.550781 191.238281 208.550781 L 164.71875 208.550781 L 164.71875 183.578125 L 177.847656 183.578125 L 177.847656 194.980469 C 177.847656 197.617188 179.992188 199.761719 182.632812 199.761719 L 190.863281 199.761719 C 193.5 199.761719 195.644531 197.617188 195.644531 194.980469 L 195.644531 183.578125 L 208.769531 183.578125 Z M 223.460938 199.574219 L 223.460938 207.472656 C 223.460938 209.890625 225.425781 211.851562 227.839844 211.851562 L 234.085938 211.851562 C 236.5 211.851562 238.464844 209.890625 238.464844 207.472656 L 238.464844 199.574219 L 246.921875 199.574219 L 246.921875 217.800781 L 215.003906 217.800781 L 215.003906 199.574219 Z M 229.695312 199.574219 L 232.230469 199.574219 L 232.230469 205.621094 L 229.695312 205.621094 Z M 264.445312 99.769531 L 262.246094 99.769531 C 260.523438 99.769531 259.128906 101.164062 259.128906 102.886719 C 259.128906 104.605469 260.523438 106.003906 262.246094 106.003906 L 264.445312 106.003906 C 266.128906 106.003906 267.496094 107.371094 267.496094 109.054688 L 267.496094 214.75 C 267.496094 216.433594 266.128906 217.800781 264.445312 217.800781 L 253.15625 217.800781 L 253.15625 198.132812 C 253.15625 195.492188 251.003906 193.339844 248.363281 193.339844 L 215.003906 193.339844 L 215.003906 182.667969 C 215.003906 179.734375 212.617188 177.34375 209.679688 177.34375 L 164.71875 177.34375 L 164.71875 164.515625 C 164.71875 161.871094 162.570312 159.722656 159.929688 159.722656 L 134.207031 159.722656 C 131.566406 159.722656 129.414062 161.871094 129.414062 164.515625 L 129.414062 187.105469 L 125.132812 187.105469 C 122.488281 187.105469 120.339844 189.257812 120.339844 191.898438 L 120.339844 217.800781 L 114.867188 217.800781 C 113.144531 217.800781 111.75 219.199219 111.75 220.917969 C 111.75 222.640625 113.144531 224.035156 114.867188 224.035156 L 264.445312 224.035156 C 269.566406 224.035156 273.730469 219.871094 273.730469 214.75 L 273.730469 109.054688 C 273.730469 103.933594 269.566406 99.769531 264.445312 99.769531 " fill-opacity="1" fill-rule="nonzero"/></g><path fill="#1e3796" d="M 195.503906 165.019531 L 235.753906 165.019531 C 237.472656 165.019531 238.867188 163.625 238.867188 161.902344 C 238.867188 160.183594 237.472656 158.785156 235.753906 158.785156 L 195.503906 158.785156 C 193.785156 158.785156 192.386719 160.183594 192.386719 161.902344 C 192.386719 163.625 193.785156 165.019531 195.503906 165.019531 " fill-opacity="1" fill-rule="nonzero"/><path fill="#f97316" d="M 195.503906 152.421875 L 203.441406 152.421875 C 205.164062 152.421875 206.558594 151.023438 206.558594 149.304688 C 206.558594 147.582031 205.164062 146.1875 203.441406 146.1875 L 195.503906 146.1875 C 193.785156 146.1875 192.386719 147.582031 192.386719 149.304688 C 192.386719 151.023438 193.785156 152.421875 195.503906 152.421875 " fill-opacity="1" fill-rule="nonzero"/><path fill="#f97316" d="M 254.320312 146.1875 L 214.675781 146.1875 C 212.957031 146.1875 211.558594 147.582031 211.558594 149.304688 C 211.558594 151.023438 212.957031 152.421875 214.675781 152.421875 L 254.320312 152.421875 C 256.042969 152.421875 257.4375 151.023438 257.4375 149.304688 C 257.4375 147.582031 256.042969 146.1875 254.320312 146.1875 " fill-opacity="1" fill-rule="nonzero"/><path fill="#1e3796" d="M 126.816406 101.523438 C 125.097656 101.523438 123.699219 102.917969 123.699219 104.640625 C 123.699219 106.363281 125.097656 107.753906 126.816406 107.753906 L 127.1875 107.753906 C 128.90625 107.753906 130.304688 106.363281 130.304688 104.640625 C 130.304688 102.917969 128.90625 101.523438 127.1875 101.523438 L 126.816406 101.523438 " fill-opacity="1" fill-rule="nonzero"/><path fill="#1e3796" d="M 160.066406 101.523438 C 158.34375 101.523438 156.949219 102.917969 156.949219 104.640625 C 156.949219 106.363281 158.34375 107.753906 160.066406 107.753906 L 160.433594 107.753906 C 162.15625 107.753906 163.550781 106.363281 163.550781 104.640625 C 163.550781 102.917969 162.15625 101.523438 160.433594 101.523438 L 160.066406 101.523438 " fill-opacity="1" fill-rule="nonzero"/><path fill="#1e3796" d="M 143.441406 101.523438 C 141.71875 101.523438 140.324219 102.917969 140.324219 104.640625 C 140.324219 106.363281 141.71875 107.753906 143.441406 107.753906 L 143.808594 107.753906 C 145.53125 107.753906 146.925781 106.363281 146.925781 104.640625 C 146.925781 102.917969 145.53125 101.523438 143.808594 101.523438 L 143.441406 101.523438 " fill-opacity="1" fill-rule="nonzero"/><g fill="#1e3796" fill-opacity="1"><g transform="translate(122.631875, 279.354752)"><g><path d="M 20.765625 0.78125 C 18.097656 0.78125 15.625 0.304688 13.34375 -0.640625 C 11.070312 -1.597656 9.085938 -2.929688 7.390625 -4.640625 C 5.703125 -6.347656 4.394531 -8.347656 3.46875 -10.640625 C 2.539062 -12.929688 2.078125 -15.40625 2.078125 -18.0625 C 2.078125 -20.757812 2.539062 -23.265625 3.46875 -25.578125 C 4.394531 -27.890625 5.703125 -29.898438 7.390625 -31.609375 C 9.085938 -33.316406 11.070312 -34.644531 13.34375 -35.59375 C 15.625 -36.539062 18.097656 -37.015625 20.765625 -37.015625 C 23.691406 -37.015625 26.378906 -36.410156 28.828125 -35.203125 C 31.285156 -33.992188 33.34375 -32.300781 35 -30.125 C 36.65625 -27.945312 37.757812 -25.425781 38.3125 -22.5625 L 30.4375 -22.5625 C 29.707031 -24.707031 28.476562 -26.410156 26.75 -27.671875 C 25.03125 -28.929688 23.035156 -29.5625 20.765625 -29.5625 C 18.722656 -29.5625 16.890625 -29.050781 15.265625 -28.03125 C 13.648438 -27.007812 12.363281 -25.632812 11.40625 -23.90625 C 10.457031 -22.1875 9.984375 -20.238281 9.984375 -18.0625 C 9.984375 -15.894531 10.457031 -13.957031 11.40625 -12.25 C 12.363281 -10.539062 13.648438 -9.179688 15.265625 -8.171875 C 16.890625 -7.171875 18.722656 -6.671875 20.765625 -6.671875 C 23.140625 -6.671875 25.1875 -7.34375 26.90625 -8.6875 C 28.632812 -10.039062 29.828125 -11.875 30.484375 -14.1875 L 38.40625 -14.1875 C 37.851562 -11.1875 36.757812 -8.5625 35.125 -6.3125 C 33.488281 -4.070312 31.4375 -2.328125 28.96875 -1.078125 C 26.5 0.160156 23.765625 0.78125 20.765625 0.78125 Z M 20.765625 0.78125 "/></g></g></g><g fill="#f97316" fill-opacity="1"><g transform="translate(159.59281, 279.354752)"><g><path d="M 4.140625 0 L 4.140625 -36.234375 L 12.015625 -36.234375 L 12.015625 0 Z M 4.140625 0 "/></g></g></g><g fill="#f97316" fill-opacity="1"><g transform="translate(172.791769, 279.354752)"><g><path d="M 48.5625 0 L 40.578125 0 L 37.015625 -23.65625 L 26.1875 -0.046875 L 24.28125 -0.046875 L 13.453125 -23.65625 L 9.890625 0 L 1.859375 0 L 7.5625 -36.234375 L 15.421875 -36.234375 L 25.203125 -14.03125 L 35.046875 -36.234375 L 42.90625 -36.234375 Z M 48.5625 0 "/></g></g></g><g fill="#f97316" fill-opacity="1"><g transform="translate(220.3088, 279.354752)"><g><path d="M 16.15625 0.71875 C 13.394531 0.71875 10.957031 0.21875 8.84375 -0.78125 C 6.738281 -1.78125 5.09375 -3.210938 3.90625 -5.078125 C 2.71875 -6.941406 2.125 -9.164062 2.125 -11.75 L 10.046875 -11.75 C 10.046875 -9.988281 10.65625 -8.6875 11.875 -7.84375 C 13.101562 -7 14.507812 -6.578125 16.09375 -6.578125 C 17.09375 -6.578125 18.03125 -6.738281 18.90625 -7.0625 C 19.789062 -7.394531 20.519531 -7.878906 21.09375 -8.515625 C 21.664062 -9.148438 21.953125 -9.914062 21.953125 -10.8125 C 21.953125 -11.75 21.625 -12.484375 20.96875 -13.015625 C 20.3125 -13.554688 19.429688 -14 18.328125 -14.34375 C 17.222656 -14.6875 16.015625 -15.015625 14.703125 -15.328125 C 13.359375 -15.628906 11.976562 -16.003906 10.5625 -16.453125 C 9.144531 -16.910156 7.832031 -17.507812 6.625 -18.25 C 5.414062 -18.988281 4.445312 -19.988281 3.71875 -21.25 C 3 -22.507812 2.640625 -24.101562 2.640625 -26.03125 C 2.640625 -29.519531 3.820312 -32.203125 6.1875 -34.078125 C 8.550781 -35.960938 11.75 -36.90625 15.78125 -36.90625 C 19.925781 -36.90625 23.132812 -35.859375 25.40625 -33.765625 C 27.6875 -31.679688 28.828125 -28.847656 28.828125 -25.265625 L 21.0625 -25.265625 C 21.0625 -26.816406 20.507812 -27.960938 19.40625 -28.703125 C 18.300781 -29.441406 17.023438 -29.8125 15.578125 -29.8125 C 14.304688 -29.8125 13.132812 -29.535156 12.0625 -28.984375 C 10.988281 -28.429688 10.453125 -27.570312 10.453125 -26.40625 C 10.453125 -25.539062 10.769531 -24.859375 11.40625 -24.359375 C 12.050781 -23.859375 12.898438 -23.441406 13.953125 -23.109375 C 15.003906 -22.785156 16.164062 -22.46875 17.4375 -22.15625 C 18.820312 -21.8125 20.238281 -21.40625 21.6875 -20.9375 C 23.132812 -20.46875 24.476562 -19.835938 25.71875 -19.046875 C 26.96875 -18.253906 27.976562 -17.203125 28.75 -15.890625 C 29.53125 -14.578125 29.921875 -12.921875 29.921875 -10.921875 C 29.921875 -8.296875 29.289062 -6.117188 28.03125 -4.390625 C 26.769531 -2.671875 25.101562 -1.390625 23.03125 -0.546875 C 20.96875 0.296875 18.675781 0.71875 16.15625 0.71875 Z M 16.15625 0.71875 "/></g></g></g><g fill="#1e3796" fill-opacity="1"><g transform="translate(83.220695, 304.238229)"><g><path d="M 0.703125 -5.953125 L 2.078125 -5.953125 L 2.078125 0 L 0.703125 0 Z M 0.703125 -5.953125 "/></g></g></g><g fill="#1e3796" fill-opacity="1"><g transform="translate(87.887891, 304.238229)"><g><path d="M 6.15625 -5.953125 L 6.15625 0 L 5.03125 0 L 2.0625 -3.609375 L 2.0625 0 L 0.703125 0 L 0.703125 -5.953125 L 1.84375 -5.953125 L 4.796875 -2.34375 L 4.796875 -5.953125 Z M 6.15625 -5.953125 "/></g></g></g><g fill="#1e3796" fill-opacity="1"><g transform="translate(96.635701, 304.238229)"><g><path d="M 6.421875 -5.953125 L 3.84375 0 L 2.484375 0 L -0.078125 -5.953125 L 1.40625 -5.953125 L 3.21875 -1.703125 L 5.0625 -5.953125 Z M 6.421875 -5.953125 "/></g></g></g><g fill="#1e3796" fill-opacity="1"><g transform="translate(104.856423, 304.238229)"><g><path d="M 5.3125 -1.109375 L 5.3125 0 L 0.703125 0 L 0.703125 -5.953125 L 5.203125 -5.953125 L 5.203125 -4.84375 L 2.078125 -4.84375 L 2.078125 -3.546875 L 4.84375 -3.546875 L 4.84375 -2.484375 L 2.078125 -2.484375 L 2.078125 -1.109375 Z M 5.3125 -1.109375 "/></g></g></g><g fill="#1e3796" fill-opacity="1"><g transform="translate(112.439557, 304.238229)"><g><path d="M 6.15625 -5.953125 L 6.15625 0 L 5.03125 0 L 2.0625 -3.609375 L 2.0625 0 L 0.703125 0 L 0.703125 -5.953125 L 1.84375 -5.953125 L 4.796875 -2.34375 L 4.796875 -5.953125 Z M 6.15625 -5.953125 "/></g></g></g><g fill="#1e3796" fill-opacity="1"><g transform="translate(121.187368, 304.238229)"><g><path d="M 1.9375 -4.828125 L 0.03125 -4.828125 L 0.03125 -5.953125 L 5.21875 -5.953125 L 5.21875 -4.828125 L 3.3125 -4.828125 L 3.3125 0 L 1.9375 0 Z M 1.9375 -4.828125 "/></g></g></g><g fill="#1e3796" fill-opacity="1"><g transform="translate(128.319926, 304.238229)"><g><path d="M 3.59375 0.109375 C 2.96875 0.109375 2.40625 -0.0234375 1.90625 -0.296875 C 1.414062 -0.566406 1.03125 -0.929688 0.75 -1.390625 C 0.46875 -1.859375 0.328125 -2.382812 0.328125 -2.96875 C 0.328125 -3.550781 0.46875 -4.078125 0.75 -4.546875 C 1.03125 -5.015625 1.414062 -5.378906 1.90625 -5.640625 C 2.40625 -5.910156 2.96875 -6.046875 3.59375 -6.046875 C 4.207031 -6.046875 4.757812 -5.910156 5.25 -5.640625 C 5.75 -5.378906 6.140625 -5.015625 6.421875 -4.546875 C 6.703125 -4.078125 6.84375 -3.550781 6.84375 -2.96875 C 6.84375 -2.382812 6.703125 -1.859375 6.421875 -1.390625 C 6.140625 -0.929688 5.75 -0.566406 5.25 -0.296875 C 4.757812 -0.0234375 4.207031 0.109375 3.59375 0.109375 Z M 3.59375 -1.078125 C 3.9375 -1.078125 4.25 -1.15625 4.53125 -1.3125 C 4.820312 -1.476562 5.046875 -1.703125 5.203125 -1.984375 C 5.367188 -2.273438 5.453125 -2.601562 5.453125 -2.96875 C 5.453125 -3.34375 5.367188 -3.671875 5.203125 -3.953125 C 5.046875 -4.242188 4.820312 -4.46875 4.53125 -4.625 C 4.25 -4.789062 3.9375 -4.875 3.59375 -4.875 C 3.238281 -4.875 2.914062 -4.789062 2.625 -4.625 C 2.34375 -4.46875 2.117188 -4.242188 1.953125 -3.953125 C 1.796875 -3.671875 1.71875 -3.34375 1.71875 -2.96875 C 1.71875 -2.601562 1.796875 -2.273438 1.953125 -1.984375 C 2.117188 -1.703125 2.34375 -1.476562 2.625 -1.3125 C 2.914062 -1.15625 3.238281 -1.078125 3.59375 -1.078125 Z M 3.59375 -1.078125 "/></g></g></g><g fill="#1e3796" fill-opacity="1"><g transform="translate(137.373774, 304.238229)"><g><path d="M 4.5 0 L 3.34375 -1.65625 L 2.078125 -1.65625 L 2.078125 0 L 0.703125 0 L 0.703125 -5.953125 L 3.28125 -5.953125 C 3.8125 -5.953125 4.269531 -5.863281 4.65625 -5.6875 C 5.039062 -5.507812 5.335938 -5.257812 5.546875 -4.9375 C 5.753906 -4.613281 5.859375 -4.234375 5.859375 -3.796875 C 5.859375 -3.347656 5.753906 -2.960938 5.546875 -2.640625 C 5.335938 -2.328125 5.035156 -2.082031 4.640625 -1.90625 L 5.96875 0 Z M 4.46875 -3.796875 C 4.46875 -4.128906 4.359375 -4.382812 4.140625 -4.5625 C 3.929688 -4.738281 3.617188 -4.828125 3.203125 -4.828125 L 2.078125 -4.828125 L 2.078125 -2.75 L 3.203125 -2.75 C 3.617188 -2.75 3.929688 -2.835938 4.140625 -3.015625 C 4.359375 -3.203125 4.46875 -3.460938 4.46875 -3.796875 Z M 4.46875 -3.796875 "/></g></g></g><g fill="#1e3796" fill-opacity="1"><g transform="translate(145.500991, 304.238229)"><g><path d="M 3.5625 -2.109375 L 3.5625 0 L 2.1875 0 L 2.1875 -2.125 L -0.125 -5.953125 L 1.34375 -5.953125 L 2.9375 -3.3125 L 4.515625 -5.953125 L 5.875 -5.953125 Z M 3.5625 -2.109375 "/></g></g></g><g fill="#1e3796" fill-opacity="1"><g transform="translate(153.12663, 304.238229)"><g/></g></g><g fill="#1e3796" fill-opacity="1"><g transform="translate(157.411265, 304.238229)"><g><path d="M 6.125 0 L 6.109375 -3.5625 L 4.359375 -0.625 L 3.734375 -0.625 L 2 -3.5 L 2 0 L 0.703125 0 L 0.703125 -5.953125 L 1.84375 -5.953125 L 4.078125 -2.25 L 6.265625 -5.953125 L 7.390625 -5.953125 L 7.40625 0 Z M 6.125 0 "/></g></g></g><g fill="#1e3796" fill-opacity="1"><g transform="translate(167.40876, 304.238229)"><g><path d="M 4.625 -1.28125 L 1.859375 -1.28125 L 1.328125 0 L -0.078125 0 L 2.578125 -5.953125 L 3.9375 -5.953125 L 6.59375 0 L 5.15625 0 Z M 4.1875 -2.328125 L 3.25 -4.59375 L 2.296875 -2.328125 Z M 4.1875 -2.328125 "/></g></g></g><g fill="#1e3796" fill-opacity="1"><g transform="translate(175.79951, 304.238229)"><g><path d="M 6.15625 -5.953125 L 6.15625 0 L 5.03125 0 L 2.0625 -3.609375 L 2.0625 0 L 0.703125 0 L 0.703125 -5.953125 L 1.84375 -5.953125 L 4.796875 -2.34375 L 4.796875 -5.953125 Z M 6.15625 -5.953125 "/></g></g></g><g fill="#1e3796" fill-opacity="1"><g transform="translate(184.547326, 304.238229)"><g><path d="M 4.625 -1.28125 L 1.859375 -1.28125 L 1.328125 0 L -0.078125 0 L 2.578125 -5.953125 L 3.9375 -5.953125 L 6.59375 0 L 5.15625 0 Z M 4.1875 -2.328125 L 3.25 -4.59375 L 2.296875 -2.328125 Z M 4.1875 -2.328125 "/></g></g></g><g fill="#1e3796" fill-opacity="1"><g transform="translate(192.938071, 304.238229)"><g><path d="M 4.71875 -3.0625 L 5.984375 -3.0625 L 5.984375 -0.65625 C 5.660156 -0.40625 5.285156 -0.210938 4.859375 -0.078125 C 4.429688 0.046875 4.003906 0.109375 3.578125 0.109375 C 2.960938 0.109375 2.40625 -0.0195312 1.90625 -0.28125 C 1.414062 -0.550781 1.03125 -0.921875 0.75 -1.390625 C 0.46875 -1.859375 0.328125 -2.382812 0.328125 -2.96875 C 0.328125 -3.5625 0.46875 -4.09375 0.75 -4.5625 C 1.03125 -5.03125 1.421875 -5.394531 1.921875 -5.65625 C 2.421875 -5.914062 2.984375 -6.046875 3.609375 -6.046875 C 4.128906 -6.046875 4.597656 -5.957031 5.015625 -5.78125 C 5.441406 -5.613281 5.800781 -5.363281 6.09375 -5.03125 L 5.203125 -4.203125 C 4.785156 -4.648438 4.273438 -4.875 3.671875 -4.875 C 3.296875 -4.875 2.957031 -4.796875 2.65625 -4.640625 C 2.363281 -4.484375 2.132812 -4.257812 1.96875 -3.96875 C 1.800781 -3.675781 1.71875 -3.34375 1.71875 -2.96875 C 1.71875 -2.601562 1.800781 -2.273438 1.96875 -1.984375 C 2.132812 -1.703125 2.363281 -1.476562 2.65625 -1.3125 C 2.945312 -1.15625 3.28125 -1.078125 3.65625 -1.078125 C 4.050781 -1.078125 4.40625 -1.160156 4.71875 -1.328125 Z M 4.71875 -3.0625 "/></g></g></g><g fill="#1e3796" fill-opacity="1"><g transform="translate(201.37132, 304.238229)"><g><path d="M 5.3125 -1.109375 L 5.3125 0 L 0.703125 0 L 0.703125 -5.953125 L 5.203125 -5.953125 L 5.203125 -4.84375 L 2.078125 -4.84375 L 2.078125 -3.546875 L 4.84375 -3.546875 L 4.84375 -2.484375 L 2.078125 -2.484375 L 2.078125 -1.109375 Z M 5.3125 -1.109375 "/></g></g></g><g fill="#1e3796" fill-opacity="1"><g transform="translate(208.95446, 304.238229)"><g><path d="M 6.125 0 L 6.109375 -3.5625 L 4.359375 -0.625 L 3.734375 -0.625 L 2 -3.5 L 2 0 L 0.703125 0 L 0.703125 -5.953125 L 1.84375 -5.953125 L 4.078125 -2.25 L 6.265625 -5.953125 L 7.390625 -5.953125 L 7.40625 0 Z M 6.125 0 "/></g></g></g><g fill="#1e3796" fill-opacity="1"><g transform="translate(218.951961, 304.238229)"><g><path d="M 5.3125 -1.109375 L 5.3125 0 L 0.703125 0 L 0.703125 -5.953125 L 5.203125 -5.953125 L 5.203125 -4.84375 L 2.078125 -4.84375 L 2.078125 -3.546875 L 4.84375 -3.546875 L 4.84375 -2.484375 L 2.078125 -2.484375 L 2.078125 -1.109375 Z M 5.3125 -1.109375 "/></g></g></g><g fill="#1e3796" fill-opacity="1"><g transform="translate(226.5351, 304.238229)"><g><path d="M 6.15625 -5.953125 L 6.15625 0 L 5.03125 0 L 2.0625 -3.609375 L 2.0625 0 L 0.703125 0 L 0.703125 -5.953125 L 1.84375 -5.953125 L 4.796875 -2.34375 L 4.796875 -5.953125 Z M 6.15625 -5.953125 "/></g></g></g><g fill="#1e3796" fill-opacity="1"><g transform="translate(235.282917, 304.238229)"><g><path d="M 1.9375 -4.828125 L 0.03125 -4.828125 L 0.03125 -5.953125 L 5.21875 -5.953125 L 5.21875 -4.828125 L 3.3125 -4.828125 L 3.3125 0 L 1.9375 0 Z M 1.9375 -4.828125 "/></g></g></g><g fill="#1e3796" fill-opacity="1"><g transform="translate(242.41548, 304.238229)"><g/></g></g><g fill="#1e3796" fill-opacity="1"><g transform="translate(246.700109, 304.238229)"><g><path d="M 2.65625 0.109375 C 2.1875 0.109375 1.734375 0.046875 1.296875 -0.078125 C 0.859375 -0.210938 0.503906 -0.382812 0.234375 -0.59375 L 0.703125 -1.625 C 0.960938 -1.4375 1.265625 -1.285156 1.609375 -1.171875 C 1.960938 -1.054688 2.316406 -1 2.671875 -1 C 3.054688 -1 3.34375 -1.054688 3.53125 -1.171875 C 3.71875 -1.285156 3.8125 -1.441406 3.8125 -1.640625 C 3.8125 -1.785156 3.753906 -1.90625 3.640625 -2 C 3.535156 -2.09375 3.394531 -2.164062 3.21875 -2.21875 C 3.050781 -2.269531 2.820312 -2.332031 2.53125 -2.40625 C 2.070312 -2.507812 1.695312 -2.613281 1.40625 -2.71875 C 1.125 -2.832031 0.878906 -3.007812 0.671875 -3.25 C 0.460938 -3.488281 0.359375 -3.804688 0.359375 -4.203125 C 0.359375 -4.546875 0.453125 -4.859375 0.640625 -5.140625 C 0.828125 -5.421875 1.109375 -5.640625 1.484375 -5.796875 C 1.859375 -5.960938 2.316406 -6.046875 2.859375 -6.046875 C 3.242188 -6.046875 3.613281 -6 3.96875 -5.90625 C 4.332031 -5.820312 4.65625 -5.695312 4.9375 -5.53125 L 4.5 -4.484375 C 3.957031 -4.796875 3.410156 -4.953125 2.859375 -4.953125 C 2.472656 -4.953125 2.1875 -4.890625 2 -4.765625 C 1.8125 -4.640625 1.71875 -4.472656 1.71875 -4.265625 C 1.71875 -4.066406 1.820312 -3.914062 2.03125 -3.8125 C 2.25 -3.707031 2.578125 -3.609375 3.015625 -3.515625 C 3.472656 -3.410156 3.84375 -3.300781 4.125 -3.1875 C 4.414062 -3.082031 4.664062 -2.914062 4.875 -2.6875 C 5.082031 -2.457031 5.1875 -2.144531 5.1875 -1.75 C 5.1875 -1.40625 5.085938 -1.09375 4.890625 -0.8125 C 4.703125 -0.53125 4.414062 -0.304688 4.03125 -0.140625 C 3.65625 0.0234375 3.195312 0.109375 2.65625 0.109375 Z M 2.65625 0.109375 "/></g></g></g><g fill="#1e3796" fill-opacity="1"><g transform="translate(254.002701, 304.238229)"><g><path d="M 3.5625 -2.109375 L 3.5625 0 L 2.1875 0 L 2.1875 -2.125 L -0.125 -5.953125 L 1.34375 -5.953125 L 2.9375 -3.3125 L 4.515625 -5.953125 L 5.875 -5.953125 Z M 3.5625 -2.109375 "/></g></g></g><g fill="#1e3796" fill-opacity="1"><g transform="translate(261.628345, 304.238229)"><g><path d="M 2.65625 0.109375 C 2.1875 0.109375 1.734375 0.046875 1.296875 -0.078125 C 0.859375 -0.210938 0.503906 -0.382812 0.234375 -0.59375 L 0.703125 -1.625 C 0.960938 -1.4375 1.265625 -1.285156 1.609375 -1.171875 C 1.960938 -1.054688 2.316406 -1 2.671875 -1 C 3.054688 -1 3.34375 -1.054688 3.53125 -1.171875 C 3.71875 -1.285156 3.8125 -1.441406 3.8125 -1.640625 C 3.8125 -1.785156 3.753906 -1.90625 3.640625 -2 C 3.535156 -2.09375 3.394531 -2.164062 3.21875 -2.21875 C 3.050781 -2.269531 2.820312 -2.332031 2.53125 -2.40625 C 2.070312 -2.507812 1.695312 -2.613281 1.40625 -2.71875 C 1.125 -2.832031 0.878906 -3.007812 0.671875 -3.25 C 0.460938 -3.488281 0.359375 -3.804688 0.359375 -4.203125 C 0.359375 -4.546875 0.453125 -4.859375 0.640625 -5.140625 C 0.828125 -5.421875 1.109375 -5.640625 1.484375 -5.796875 C 1.859375 -5.960938 2.316406 -6.046875 2.859375 -6.046875 C 3.242188 -6.046875 3.613281 -6 3.96875 -5.90625 C 4.332031 -5.820312 4.65625 -5.695312 4.9375 -5.53125 L 4.5 -4.484375 C 3.957031 -4.796875 3.410156 -4.953125 2.859375 -4.953125 C 2.472656 -4.953125 2.1875 -4.890625 2 -4.765625 C 1.8125 -4.640625 1.71875 -4.472656 1.71875 -4.265625 C 1.71875 -4.066406 1.820312 -3.914062 2.03125 -3.8125 C 2.25 -3.707031 2.578125 -3.609375 3.015625 -3.515625 C 3.472656 -3.410156 3.84375 -3.300781 4.125 -3.1875 C 4.414062 -3.082031 4.664062 -2.914062 4.875 -2.6875 C 5.082031 -2.457031 5.1875 -2.144531 5.1875 -1.75 C 5.1875 -1.40625 5.085938 -1.09375 4.890625 -0.8125 C 4.703125 -0.53125 4.414062 -0.304688 4.03125 -0.140625 C 3.65625 0.0234375 3.195312 0.109375 2.65625 0.109375 Z M 2.65625 0.109375 "/></g></g></g><g fill="#1e3796" fill-opacity="1"><g transform="translate(268.930926, 304.238229)"><g><path d="M 1.9375 -4.828125 L 0.03125 -4.828125 L 0.03125 -5.953125 L 5.21875 -5.953125 L 5.21875 -4.828125 L 3.3125 -4.828125 L 3.3125 0 L 1.9375 0 Z M 1.9375 -4.828125 "/></g></g></g><g fill="#1e3796" fill-opacity="1"><g transform="translate(276.063489, 304.238229)"><g><path d="M 5.3125 -1.109375 L 5.3125 0 L 0.703125 0 L 0.703125 -5.953125 L 5.203125 -5.953125 L 5.203125 -4.84375 L 2.078125 -4.84375 L 2.078125 -3.546875 L 4.84375 -3.546875 L 4.84375 -2.484375 L 2.078125 -2.484375 L 2.078125 -1.109375 Z M 5.3125 -1.109375 "/></g></g></g><g fill="#1e3796" fill-opacity="1"><g transform="translate(283.646629, 304.238229)"><g><path d="M 6.125 0 L 6.109375 -3.5625 L 4.359375 -0.625 L 3.734375 -0.625 L 2 -3.5 L 2 0 L 0.703125 0 L 0.703125 -5.953125 L 1.84375 -5.953125 L 4.078125 -2.25 L 6.265625 -5.953125 L 7.390625 -5.953125 L 7.40625 0 Z M 6.125 0 "/></g></g></g></svg>